<?xml version="1.0" encoding="UTF-8" standalone="no"?>
<!-- Created with Inkscape (http://www.inkscape.org/) -->

<svg
   width="92.868759mm"
   height="60.854168mm"
   viewBox="0 0 92.868759 60.854168"
   version="1.1"
   id="svg1"
   xml:space="preserve"
   xmlns:inkscape="http://www.inkscape.org/namespaces/inkscape"
   xmlns:sodipodi="http://sodipodi.sourceforge.net/DTD/sodipodi-0.dtd"
   xmlns="http://www.w3.org/2000/svg"
   xmlns:svg="http://www.w3.org/2000/svg"><sodipodi:namedview
     id="namedview1"
     pagecolor="#ffffff"
     bordercolor="#000000"
     borderopacity="0.25"
     inkscape:showpageshadow="2"
     inkscape:pageopacity="0.0"
     inkscape:pagecheckerboard="0"
     inkscape:deskcolor="#d1d1d1"
     inkscape:document-units="mm"><inkscape:page
       x="0"
       y="0"
       width="92.868759"
       height="60.854168"
       id="page2"
       margin="0"
       bleed="0" /></sodipodi:namedview><defs
     id="defs1" /><g
     inkscape:label="Layer 1"
     inkscape:groupmode="layer"
     id="layer1"
     transform="translate(-56.999,-158.29852)"><path
       style="fill:#000000"
       d="m 58.980684,218.55737 c -0.481082,-0.32742 -1.123768,-0.93146 -1.42819,-1.34232 C 57.010482,216.48354 56.999,216.22515 56.999,204.75904 v -11.709 l 0.762482,-0.99967 c 1.330242,-1.74404 1.276941,-1.73727 13.678933,-1.73727 10.757353,0 11.185252,0.0192 12.11773,0.54327 0.531636,0.29879 1.232456,0.93124 1.557378,1.40543 0.589266,0.85998 0.590768,0.89175 0.590768,12.49219 v 11.63002 l -0.645301,0.94965 c -1.243869,1.83052 -1.15642,1.81903 -13.841495,1.81903 -11.349451,0 -11.365244,-7.7e-4 -12.238811,-0.59532 z m 23.59592,-2.4884 c 0.453867,-0.41074 0.483854,-1.11491 0.483854,-11.36208 v -10.9242 l -0.588038,-0.41188 c -0.508569,-0.35621 -2.026839,-0.41187 -11.234485,-0.41187 -10.611484,0 -10.648218,0.002 -11.18592,0.57905 -0.524411,0.56289 -0.539474,0.87685 -0.539474,11.24479 0,10.31296 0.0175,10.68324 0.529167,11.19491 0.511819,0.51181 0.881945,0.52916 11.290104,0.52916 9.64187,0 10.811255,-0.0455 11.244792,-0.43788 z m -15.838902,-8.11019 c -1.772963,-1.77297 -2.462661,-2.64503 -2.462661,-3.11382 0,-0.47256 0.723633,-1.37208 2.638336,-3.2796 2.493446,-2.48409 2.678706,-2.61432 3.373438,-2.37151 0.54991,0.1922 0.754761,0.4559 0.81314,1.04674 0.06206,0.62814 -0.141031,1.00372 -0.992188,1.83486 -0.588624,0.57477 -1.070226,1.13713 -1.070226,1.24968 0,0.11256 2.051076,0.23722 4.557946,0.27704 l 4.557946,0.0724 0.265369,0.7553 c 0.228342,0.64991 0.178959,0.82527 -0.353924,1.25677 -0.550572,0.44582 -1.091915,0.50147 -4.878403,0.50147 h -4.25911 l 1.113421,1.1345 c 1.557537,1.58701 1.469232,3.09884 -0.181001,3.09884 -0.479222,0 -1.332398,-0.67298 -3.122083,-2.46266 z m 24.247543,10.59769 c -0.486595,-0.32791 -1.129281,-1.01252 -1.42819,-1.52135 -0.525471,-0.8945 -0.543472,-1.30197 -0.543472,-12.30223 0,-11.00323 0.01787,-11.4075 0.543911,-12.30297 0.299151,-0.50925 1.013526,-1.1919 1.5875,-1.51701 1.03477,-0.58611 1.138618,-0.5911 12.288386,-0.5911 11.14976,0 11.25361,0.005 12.28838,0.5911 0.57397,0.32511 1.28835,1.00776 1.5875,1.51701 0.52604,0.89547 0.54391,1.29974 0.54391,12.30297 0,11.00026 -0.018,11.40773 -0.54347,12.30223 -0.29891,0.50883 -0.9416,1.19344 -1.42819,1.52135 -0.88436,0.59597 -0.88941,0.59622 -12.44813,0.59622 -11.558726,0 -11.563776,-2.5e-4 -12.448135,-0.59622 z m 23.673625,-2.46499 c 0.22846,-0.22846 0.47985,-0.67495 0.55865,-0.99219 0.0788,-0.31725 0.10875,-5.17811 0.0665,-10.80193 -0.0722,-9.62384 -0.10636,-10.25784 -0.58075,-10.78177 -0.49659,-0.54844 -0.6629,-0.55665 -11.26993,-0.55665 -10.607034,0 -10.773346,0.008 -11.269936,0.55665 -0.474389,0.52393 -0.50854,1.15793 -0.580758,10.78177 -0.0422,5.62382 -0.01226,10.48468 0.06654,10.80193 0.357293,1.43844 0.09878,1.40756 11.784144,1.40756 9.47021,0 10.8616,-0.0515 11.22549,-0.41537 z m -14.06212,-6.52994 c -3.004092,-2.93998 -3.164872,-3.19059 -2.600042,-4.05264 0.6332,-0.96638 1.42459,-0.79879 2.847892,0.60311 l 1.26586,1.24682 v -4.5012 c 0,-4.82174 0.081,-5.13619 1.32292,-5.13619 1.24192,0 1.32291,0.31445 1.32291,5.13619 v 4.5012 l 1.26586,-1.24682 c 0.73308,-0.72205 1.51003,-1.24682 1.84599,-1.24682 0.77842,0 1.51476,1.11935 1.16316,1.76819 -0.40739,0.75178 -5.22243,5.37556 -5.59792,5.37556 -0.18473,0 -1.46121,-1.10133 -2.83663,-2.4474 z m 22.71986,9.14229 c -0.4876,-0.24025 -1.17673,-0.8753 -1.53139,-1.41123 -0.59103,-0.89311 -0.63848,-1.19235 -0.56865,-3.58629 0.076,-2.60752 0.0774,-2.61233 0.83148,-2.8769 0.64973,-0.22798 0.82539,-0.17846 1.25677,0.35427 0.38896,0.48035 0.50147,1.04875 0.50147,2.53335 0,3.00021 -0.88448,2.78982 11.72865,2.78982 10.40816,0 10.77828,-0.0173 11.2901,-0.52916 0.51167,-0.51167 0.52917,-0.88195 0.52917,-11.19491 0,-10.36794 -0.0151,-10.6819 -0.53947,-11.24479 -0.53771,-0.57715 -0.57444,-0.57905 -11.18592,-0.57905 -9.20765,0 -10.72592,0.0557 -11.23449,0.41187 -0.57956,0.40594 -0.58804,0.50237 -0.58804,6.68801 0,6.78245 -0.12737,7.4522 -1.41729,7.4522 -1.18767,0 -1.22854,-0.24987 -1.22854,-7.51102 0,-6.68121 0.0167,-6.90046 0.59077,-7.7382 0.32492,-0.47419 1.02574,-1.10664 1.55738,-1.40543 0.93247,-0.52408 1.36037,-0.54327 12.11773,-0.54327 12.40189,0 12.34864,-0.007 13.67893,1.73718 l 0.76248,0.99957 v 11.70899 c 0,11.46606 -0.0115,11.72449 -0.55349,12.45611 -0.30443,0.41091 -0.94711,1.015 -1.42819,1.34242 -0.87405,0.59487 -0.88314,0.59531 -12.2788,0.58929 -10.05802,-0.005 -11.50875,-0.0576 -12.29066,-0.44283 z m 12.71343,-8.59989 c -0.62789,-0.6279 -0.34405,-1.6198 0.79592,-2.78134 l 1.11343,-1.1345 h -4.25911 c -3.78649,0 -4.32783,-0.0556 -4.87841,-0.50147 -0.53288,-0.4315 -0.58226,-0.60686 -0.35392,-1.25677 l 0.26537,-0.7553 4.55794,-0.0724 c 2.50687,-0.0398 4.55795,-0.16448 4.55795,-0.27704 0,-0.11255 -0.4816,-0.67491 -1.07023,-1.24968 -0.85115,-0.83114 -1.05425,-1.20672 -0.99218,-1.83486 0.0584,-0.59084 0.26323,-0.85454 0.81314,-1.04674 0.69473,-0.24281 0.87999,-0.11258 3.37343,2.37151 1.91471,1.90752 2.63834,2.80704 2.63834,3.2796 0,0.46879 -0.6897,1.34085 -2.46266,3.11382 -2.49079,2.49078 -3.31962,2.92454 -4.09901,2.14516 z M 91.144994,186.53829 c -2.008981,-1.13792 -2.120291,-1.58418 -2.21476,-8.87923 -0.07161,-5.52955 -0.02415,-6.52668 0.336829,-7.0776 0.459017,-0.70055 1.485774,-0.85856 1.94935,-0.29998 0.178794,0.21543 0.312705,2.69345 0.363126,6.71965 0.07309,5.83637 0.122706,6.42563 0.583905,6.93475 0.49651,0.54809 0.664615,0.55639 11.269936,0.55639 10.60703,0 10.77334,-0.008 11.26993,-0.55666 0.47439,-0.52392 0.50854,-1.15793 0.58075,-10.78177 0.0422,-5.62381 0.0123,-10.48468 -0.0665,-10.80192 -0.35729,-1.43845 -0.0988,-1.40757 -11.78414,-1.40757 -9.470223,0 -10.86161,0.0515 -11.225501,0.41538 -0.521959,0.52196 -0.660447,1.13201 -0.745371,3.28347 -0.06404,1.62241 -0.10823,1.72867 -0.822973,1.97904 -0.655589,0.22965 -0.825421,0.17798 -1.286485,-0.39141 -0.459377,-0.56731 -0.516007,-0.94524 -0.418891,-2.79553 0.128251,-2.4435 0.648611,-3.59544 2.051086,-4.54057 0.884359,-0.59597 0.889409,-0.59621 12.448135,-0.59621 11.55872,0 11.56377,2.4e-4 12.44813,0.59621 0.48659,0.32792 1.12928,1.01253 1.42819,1.52135 0.52547,0.8945 0.54347,1.30198 0.54347,12.30223 0,11.00323 -0.0179,11.40751 -0.54391,12.30298 -0.29915,0.50924 -1.01353,1.19189 -1.5875,1.517 -1.03477,0.58611 -1.13862,0.59111 -12.28838,0.59111 -11.149768,0 -11.253616,-0.005 -12.288386,-0.59111 z m 11.282966,-7.12602 c -0.22206,-0.22206 -0.3175,-1.67055 -0.3175,-4.8187 v -4.5012 l -1.26586,1.24682 c -0.73308,0.72206 -1.510022,1.24683 -1.845982,1.24683 -0.77843,0 -1.51477,-1.11936 -1.16316,-1.7682 0.40739,-0.75178 5.222422,-5.37555 5.597922,-5.37555 0.37549,0 5.19053,4.62377 5.59792,5.37555 0.3516,0.64884 -0.38474,1.7682 -1.16316,1.7682 -0.33596,0 -1.11291,-0.52477 -1.84599,-1.24683 l -1.26586,-1.24682 v 4.5012 c 0,4.82174 -0.081,5.1362 -1.32291,5.1362 -0.37836,0 -0.8308,-0.14288 -1.00542,-0.3175 z"
       id="path1" /></g></svg>
