<?xml version="1.0" encoding="UTF-8" standalone="no"?>
<!-- Created with Inkscape (http://www.inkscape.org/) -->

<svg
   width="93.060806mm"
   height="93.176682mm"
   viewBox="0 0 186.121612 186.353364"
   version="1.1"
   id="svg1"
   xml:space="preserve"
   xmlns:inkscape="http://www.inkscape.org/namespaces/inkscape"
   xmlns:sodipodi="http://sodipodi.sourceforge.net/DTD/sodipodi-0.dtd"
   xmlns="http://www.w3.org/2000/svg"
   xmlns:svg="http://www.w3.org/2000/svg"><sodipodi:namedview
     id="namedview1"
     pagecolor="#ffffff"
     bordercolor="#000000"
     borderopacity="0.25"
     inkscape:showpageshadow="2"
     inkscape:pageopacity="0.0"
     inkscape:pagecheckerboard="0"
     inkscape:deskcolor="#d1d1d1"
     inkscape:document-units="mm"><inkscape:page
       x="0"
       y="3.9810073e-37"
       width="93.060806"
       height="93.176682"
       id="page2"
       margin="0"
       bleed="0" /></sodipodi:namedview><defs
     id="defs1" /><g
     inkscape:label="Layer 1"
     inkscape:groupmode="layer"
     id="layer1"
     transform="translate(-6.650846,-102.504379)"><path
       style="fill:#000000"
       d="m 96.05235,241.75705 c -0.432063,-0.34987 -1.217795,-2.51738 -3.09318,-8.53282 -3.188582,-10.22761 -14.496142,-46.5737 -15.308544,-49.20652 -0.336772,-1.0914 -1.347202,-4.35478 -2.2454,-7.25196 -1.347829,-4.34747 -1.583481,-5.37645 -1.349096,-5.89087 0.653889,-1.43513 0.872795,-1.40209 10.506765,1.58594 16.097815,4.99282 16.616995,5.16541 16.963375,5.63912 0.82179,1.12386 0.0373,2.74277 -1.32908,2.74277 -0.464,0 -5.470727,-1.43574 -11.126061,-3.19053 -5.655333,-1.7548 -10.336162,-3.1368 -10.401843,-3.07112 -0.116322,0.11633 1.093552,4.05261 12.659325,41.18665 3.059365,9.82266 5.675083,18.24633 5.812705,18.71927 0.137622,0.47295 0.293153,0.8599 0.345624,0.8599 0.05247,0 1.959088,-3.77883 4.23693,-8.3974 2.27783,-4.61857 4.33135,-8.60716 4.56337,-8.86354 0.23202,-0.25638 0.79094,-0.46614 1.24205,-0.46614 0.72647,0 1.96875,1.14885 10.87145,10.05386 l 10.05125,10.05387 6.68268,-6.67882 6.68267,-6.67882 -10.0545,-10.05705 c -8.89084,-8.89309 -10.05451,-10.15167 -10.05451,-10.87466 0,-0.44969 0.20977,-1.00745 0.46615,-1.23947 0.25637,-0.23202 4.24497,-2.28554 8.86354,-4.56338 4.61857,-2.27784 8.3974,-4.17948 8.3974,-4.22586 0,-0.093 -0.0145,-0.0976 -15.47485,-4.9001 -9.34979,-2.90438 -10.91598,-3.46429 -11.3622,-4.06196 -0.65191,-0.87316 -0.33988,-1.98817 0.69523,-2.48428 0.75526,-0.36198 -0.53162,-0.73112 23.76057,6.81573 4.29286,1.33367 8.0712,2.59544 8.39632,2.80395 0.73157,0.46918 1.00662,1.4638 0.60982,2.20522 -0.19402,0.36253 -3.6449,2.23251 -9.81208,5.31703 -5.23205,2.61681 -9.51281,4.84471 -9.51281,4.95089 0,0.10619 4.42085,4.61973 9.82413,10.03009 9.27141,9.28359 9.81393,9.87928 9.64298,10.588 -0.25235,1.04612 -16.39383,17.1876 -17.43995,17.43995 -0.70872,0.17096 -1.30442,-0.37157 -10.588,-9.64298 -5.41037,-5.40327 -9.92391,-9.82413 -10.03009,-9.82413 -0.10618,0 -2.33409,4.28076 -4.95089,9.51281 -5.219107,10.43507 -5.552835,10.88358 -7.14125,9.59736 z M 59.795832,187.4573 c -1.068783,-1.06879 -0.741576,-1.74551 2.328333,-4.81542 3.069909,-3.06991 3.746634,-3.39712 4.815417,-2.32833 1.08069,1.08069 0.746801,1.77644 -2.319425,4.83315 -3.063131,3.05364 -3.751563,3.38336 -4.824325,2.3106 z m 46.224488,-4.76675 c -0.87194,-0.68587 -0.95594,-1.87263 -0.18699,-2.64159 1.08186,-1.08185 2.91042,-0.35615 2.91042,1.15506 0,1.69737 -1.44954,2.48857 -2.72343,1.48653 z m -52.18964,-9.9056 c -0.357187,-0.35719 -0.649432,-0.89838 -0.649432,-1.20265 0,-0.30428 0.292245,-0.84547 0.649432,-1.20266 0.629064,-0.62906 0.768283,-0.64943 4.439045,-0.64943 4.463358,0 4.96569,0.18736 4.96569,1.85209 0,1.66472 -0.502332,1.85208 -4.96569,1.85208 -3.670762,0 -3.809981,-0.0204 -4.439045,-0.64943 z m 8.275744,-12.25333 c -3.081056,-3.09064 -3.368152,-3.70652 -2.227394,-4.7782 1.132754,-1.06417 1.687525,-0.79866 4.74996,2.2733 3.053633,3.06313 3.383355,3.75156 2.310592,4.82433 -1.08069,1.08069 -1.77644,0.7468 -4.833158,-2.31943 z m 22.295658,2.31943 c -1.068783,-1.06879 -0.741575,-1.74551 2.328333,-4.81542 3.069909,-3.06991 3.746634,-3.39712 4.815417,-2.32833 1.08069,1.08069 0.746801,1.77644 -2.319425,4.83315 -3.063131,3.05364 -3.751562,3.38336 -4.824325,2.3106 z m -10.171455,-4.29221 c -0.326241,-0.46577 -0.411878,-1.37597 -0.411878,-4.37765 0,-3.67076 0.02037,-3.80998 0.649431,-4.43905 0.357188,-0.35718 0.898381,-0.64943 1.202652,-0.64943 0.304271,0 0.845464,0.29225 1.202651,0.64943 0.629065,0.62907 0.649432,0.76829 0.649432,4.43905 0,4.46336 -0.187358,4.96569 -1.852083,4.96569 -0.762708,0 -1.134717,-0.15189 -1.440205,-0.58804 z"
       id="path1" /></g></svg>
